<svg xmlns="http://www.w3.org/2000/svg" viewBox="0 0 200 200" width="200" height="200"><rect x="0" y="0" width="200" height="200" rx="44" fill="#ffffff" stroke="#e5e5e5" stroke-width="2"/><g transform="translate(30 30) scale(0.875)"><title>Specialty grade</title><defs><mask id="m-award" maskUnits="userSpaceOnUse" x="0" y="0" width="160" height="160"><rect width="160" height="160" fill="#fff"/> <circle cx="80" cy="62" r="34" fill="none" stroke="#000" stroke-width="4"/> <path fill="#000" d="M80 38l7 15 16 2-12 11 3 16-14-8-14 8 3-16-12-11 16-2z"/></mask></defs><g fill="#000" mask="url(#m-award)"><path d="M52 92l-16 52 22-10 12 20 14-48z"/> <path d="M108 92l16 52-22-10-12 20-14-48z"/> <circle cx="80" cy="62" r="46"/></g></g></svg>